<?xml version="1.0" encoding="UTF-8"?><svg id="_레이어_1" xmlns="http://www.w3.org/2000/svg" viewBox="0 0 134.47 87.83"><defs><style>.cls-1{fill:#f4a051;}.cls-2{fill:#f7bb82;}.cls-3{fill:#ed7100;}.cls-4{fill:#231815;}</style></defs><path class="cls-2" d="M59.07,29.06c-.81-7.37,6.92-13.28,17.26-13.2,10.34,.08,19.38,6.12,20.19,13.48,.82,7.37-6.9,13.28-17.25,13.2-10.34-.08-19.39-6.11-20.2-13.48m39.37,2.29c-.94-9.14-11.34-16.62-23.24-16.73-11.91-.1-20.79,7.23-19.86,16.37,.93,9.14,11.34,16.63,23.24,16.73,11.9,.1,20.8-7.23,19.86-16.37"/><path class="cls-1" d="M80.48,47.9c-5.86,6.13-15.27,6.63-21.01,1.14-5.75-5.5-5.65-14.92,.21-21.05,5.86-6.12,15.27-6.63,21.02-1.13,5.74,5.5,5.64,14.92-.22,21.04m-21.72-20.1c-6.81,7.12-6.92,18.07-.25,24.46,6.68,6.39,17.62,5.8,24.43-1.32,6.82-7.12,6.93-18.07,.25-24.46-6.67-6.39-17.61-5.8-24.43,1.32"/><path class="cls-3" d="M59.38,4.88c12.2-4.57,24.25,.05,26.93,10.33,2.69,10.27-5.03,22.3-17.22,26.87-12.2,4.57-24.25-.06-26.93-10.32-2.68-10.27,5.03-22.3,17.22-26.87m-11.32,3.93c-12.65,10.02-15.87,24.53-7.2,32.41,8.68,7.88,25.97,6.16,38.62-3.86,12.65-10.01,15.88-24.53,7.19-32.41-8.68-7.89-25.97-6.16-38.61,3.86"/><g><path class="cls-4" d="M20.54,65.15v22.67h-3.55v-11.96H3.55v11.96H0v-22.67H3.55v7.61h13.44v-7.61h3.55Z"/><path class="cls-4" d="M29.07,87.83c-1.66,0-2.97-.46-3.94-1.39-.99-.93-1.48-2.12-1.48-3.58v-1.21c0-1.48,.49-2.68,1.48-3.61,.97-.95,2.28-1.42,3.94-1.42h9.26v-.09c0-1.82-1-2.72-2.99-2.72h-10.3v-3.02h10.24c2.13,0,3.76,.54,4.88,1.63,1.14,1.05,1.72,2.57,1.72,4.56v6.01c0,1.54-.52,2.75-1.57,3.64-.95,.81-2.28,1.21-4,1.21h-7.25Zm6.48-8.2h-5.62c-1.82,0-2.72,.77-2.72,2.31v.56c0,1.52,.91,2.28,2.72,2.28h5.62c1.85,0,2.78-.76,2.78-2.28v-.56c0-1.54-.93-2.31-2.78-2.31Z"/><path class="cls-4" d="M52.27,70.78h3.49c2.21,0,3.95,.64,5.21,1.92,1.26,1.28,1.89,3.07,1.89,5.36v9.77h-3.55v-9.59c0-1.42-.28-2.46-.83-3.11-.69-.85-1.69-1.27-2.99-1.27h-3.02c-1.26,0-2.25,.42-2.96,1.27-.51,.65-.77,1.69-.77,3.11v9.59h-3.55v-9.77c0-2.29,.63-4.07,1.89-5.36,1.26-1.28,2.99-1.92,5.18-1.92Z"/><path class="cls-4" d="M79.24,85.55c-1.26,1.52-2.83,2.28-4.71,2.28h-2.19c-1.97,0-3.54-.62-4.71-1.86-1.11-1.16-1.66-2.81-1.66-4.94v-10.24h3.52v10.27c0,1.24,.27,2.15,.8,2.72,.61,.65,1.41,.98,2.4,.98h1.54c1.01,0,1.82-.33,2.43-.98,.55-.57,.83-1.48,.83-2.72v-10.27h3.49v10.27c0,1.24,.27,2.15,.8,2.72,.61,.65,1.41,.98,2.4,.98h1.54c1.01,0,1.82-.33,2.43-.98,.55-.57,.83-1.48,.83-2.72v-10.27h3.52v10.24c0,2.13-.57,3.78-1.72,4.94-1.17,1.24-2.74,1.86-4.74,1.86h-2.16c-1.84,0-3.38-.76-4.65-2.28Z"/><path class="cls-4" d="M102.92,73.86c-1.26,0-2.25,.42-2.96,1.27-.51,.65-.77,1.69-.77,3.11v9.59h-3.55v-22.73h3.55v6.72c1.03-.69,2.2-1.04,3.52-1.04h3.49c2.21,0,3.95,.64,5.21,1.92s1.89,3.07,1.89,5.36v9.77h-3.55v-9.59c0-1.42-.28-2.46-.83-3.11-.69-.85-1.69-1.27-2.99-1.27h-3.02Z"/><path class="cls-4" d="M121.66,87.83c-1.66,0-2.97-.46-3.94-1.39-.99-.93-1.48-2.12-1.48-3.58v-1.21c0-1.48,.49-2.68,1.48-3.61,.97-.95,2.28-1.42,3.94-1.42h9.26v-.09c0-1.82-1-2.72-2.99-2.72h-10.3v-3.02h10.24c2.13,0,3.76,.54,4.88,1.63,1.14,1.05,1.72,2.57,1.72,4.56v6.01c0,1.54-.52,2.75-1.57,3.64-.95,.81-2.28,1.21-4,1.21h-7.25Zm6.48-8.2h-5.62c-1.82,0-2.72,.77-2.72,2.31v.56c0,1.52,.91,2.28,2.72,2.28h5.62c1.85,0,2.78-.76,2.78-2.28v-.56c0-1.54-.93-2.31-2.78-2.31Z"/></g></svg>