<?xml version="1.0" encoding="utf-8"?>
<!-- Generator: Adobe Illustrator 13.0.0, SVG Export Plug-In . SVG Version: 6.00 Build 14948)  -->
<!DOCTYPE svg PUBLIC "-//W3C//DTD SVG 1.1//EN" "http://www.w3.org/Graphics/SVG/1.1/DTD/svg11.dtd">
<svg version="1.1" id="Layer_1" xmlns="http://www.w3.org/2000/svg" xmlns:xlink="http://www.w3.org/1999/xlink" x="0px" y="0px"
	 width="224.463px" height="123.792px" viewBox="0 0 224.463 123.792" enable-background="new 0 0 224.463 123.792"
	 xml:space="preserve">
<g>
	<path fill="#004098" d="M198.15,123.792c4.054,0,8.012-3.291,8.836-7.336l17.324-93.462c0.824-4.051-1.789-7.326-5.496-7.326
		H28.375c-4.397,0-8.342,3.275-9.17,7.326L0.15,116.456c-0.818,4.045,1.79,7.336,5.84,7.336H198.15z"/>
	<path fill="#FFFFFF" d="M88.91,54.047l-7.418,36.179c0,0-5.05,20.82,22.354,20.82c0,0,24.098,0.829,30.774-18.36l2.188-10.684
		h-18.789l-1.745,8.491c0,0-1.845,7.126-9.566,6.582c0,0-8,0.821-6.258-5.757l7.643-37.271c0,0,0.213-6.163,8.838-6.853
		c0,0,7.832,0,6.99,6.035l-1.912,9.313h18.788l1.914-9.313c0,0,3.708-20.007-23.029-19.453
		C119.682,33.777,94.015,34.87,88.91,54.047z"/>
	<path fill="#FFFFFF" d="M146.136,54.047l-7.412,36.179c0,0-5.057,20.82,22.351,20.82c0,0,24.104,0.829,30.776-18.36l2.184-10.684
		h-18.78l-1.745,8.491c0,0-1.851,7.126-9.575,6.582c0,0-7.995,0.821-6.261-5.757l7.649-37.271c0,0,0.218-6.163,8.837-6.853
		c0,0,7.829,0,6.991,6.035l-1.914,9.313h18.789l1.912-9.313c0,0,3.711-20.007-23.021-19.453
		C176.918,33.777,151.247,34.87,146.136,54.047z"/>
	<g>
		<polyline fill="#FFFFFF" points="114.881,15.676 93.123,15.667 54.709,57.535 60.821,30.241 40.984,30.217 23.99,109.121 
			43.838,109.121 48.426,87.098 53.559,81.184 60.386,109.135 80.064,109.135 68.64,66.176 114.881,15.676 		"/>
		<polygon fill="#E60012" points="129.233,0.008 107.425,0 93.123,15.667 114.862,15.648 		"/>
	</g>
</g>
</svg>
