<?xml version="1.0" encoding="UTF-8"?>
<svg xmlns="http://www.w3.org/2000/svg" xmlns:xlink="http://www.w3.org/1999/xlink" width="413px" height="58px" viewBox="0 0 413 58" version="1.1">
<g id="surface1">
<path style=" stroke:none;fill-rule:nonzero;fill:rgb(53.72549%,46.666667%,40.392157%);fill-opacity:1;" d="M 27.089844 1.589844 C 29.421875 1.34375 31.8125 1.5625 34.035156 2.328125 C 36.425781 3.109375 38.585938 4.511719 40.359375 6.292969 C 44.128906 10.070312 47.910156 13.839844 51.679688 17.617188 C 54.046875 20.003906 55.648438 23.144531 56.132812 26.476562 C 56.832031 30.925781 55.542969 35.644531 52.648438 39.097656 C 51.824219 40.101562 50.863281 40.976562 49.957031 41.898438 C 47.078125 44.785156 44.195312 47.664062 41.308594 50.546875 C 40.710938 51.132812 40.140625 51.753906 39.5 52.292969 C 37.078125 54.46875 33.957031 55.84375 30.726562 56.195312 C 26.304688 56.738281 21.695312 55.289062 18.359375 52.34375 C 17.289062 51.351562 16.273438 50.308594 15.242188 49.28125 C 12.179688 46.214844 9.105469 43.15625 6.050781 40.085938 C 4.121094 38.128906 2.710938 35.664062 2.019531 33.003906 C 0.847656 28.621094 1.632812 23.746094 4.1875 19.988281 C 5.21875 18.402344 6.632812 17.125 7.953125 15.789062 C 11.140625 12.613281 14.320312 9.433594 17.5 6.253906 C 20.042969 3.664062 23.480469 1.976562 27.089844 1.589844 M 26.933594 11.582031 C 26.046875 11.761719 25.195312 12.132812 24.480469 12.691406 C 23.226562 13.660156 22.398438 15.078125 21.902344 16.5625 C 21.019531 19.179688 21.003906 21.984375 21.152344 24.714844 C 21.449219 28.984375 22.144531 33.273438 23.660156 37.289062 C 24.558594 39.578125 25.761719 41.820312 27.597656 43.5 C 29.152344 44.957031 31.285156 45.9375 33.449219 45.683594 C 35.28125 45.519531 36.925781 44.566406 38.335938 43.441406 C 39.96875 42.097656 41.347656 40.457031 42.472656 38.671875 C 42.726562 38.292969 42.777344 37.804688 42.648438 37.371094 C 42.4375 36.652344 41.617188 36.226562 40.898438 36.402344 C 40.210938 36.550781 39.890625 37.242188 39.523438 37.765625 C 38.3125 39.496094 36.839844 41.109375 34.980469 42.148438 C 33.699219 42.894531 31.996094 42.976562 30.726562 42.164062 C 29.273438 41.304688 28.234375 39.90625 27.441406 38.445312 C 26.210938 36.136719 25.480469 33.597656 24.953125 31.042969 C 24.4375 28.507812 24.136719 25.929688 24.054688 23.339844 C 24.027344 21.546875 24.0625 19.722656 24.554688 17.984375 C 24.859375 16.917969 25.328125 15.832031 26.199219 15.105469 C 27.082031 14.363281 28.328125 14.296875 29.414062 14.507812 C 30.667969 14.792969 31.496094 15.921875 31.9375 17.0625 C 32.527344 18.53125 32.691406 20.125 32.769531 21.691406 C 32.855469 26.378906 32.058594 31.175781 29.828125 35.339844 C 29.5625 35.894531 29.15625 36.390625 29.007812 36.996094 C 28.859375 37.726562 29.390625 38.480469 30.09375 38.664062 C 30.726562 38.851562 31.433594 38.515625 31.753906 37.953125 C 34.171875 33.875 35.363281 29.15625 35.667969 24.449219 C 35.804688 21.734375 35.75 18.945312 34.832031 16.355469 C 34.261719 14.730469 33.25 13.195312 31.75 12.296875 C 30.320312 11.421875 28.550781 11.332031 26.933594 11.582031 M 21.582031 42.46875 C 21.0625 42.632812 20.652344 43.074219 20.511719 43.597656 C 20.230469 44.476562 20.871094 45.472656 21.761719 45.644531 C 22.765625 45.90625 23.867188 44.980469 23.742188 43.9375 C 23.734375 42.878906 22.566406 42.105469 21.582031 42.46875 Z M 21.582031 42.46875 "/>
<path style=" stroke:none;fill-rule:nonzero;fill:rgb(53.72549%,46.666667%,40.392157%);fill-opacity:1;" d="M 97.332031 18.890625 C 98.902344 18.707031 100.503906 18.699219 102.070312 18.929688 C 104.707031 19.324219 107.3125 20.460938 109.105469 22.480469 C 112.023438 25.589844 112.460938 30.652344 110.265625 34.28125 C 109.179688 36.140625 107.4375 37.558594 105.480469 38.417969 C 103.628906 39.203125 101.609375 39.589844 99.601562 39.546875 C 97.554688 39.59375 95.492188 39.210938 93.621094 38.382812 C 91.449219 37.429688 89.570312 35.746094 88.535156 33.597656 C 87.648438 31.820312 87.355469 29.765625 87.609375 27.800781 C 87.910156 25.339844 89.191406 23.007812 91.128906 21.453125 C 92.882812 20.003906 95.09375 19.199219 97.332031 18.890625 M 99.226562 21.03125 C 98.054688 21.140625 96.925781 21.621094 96.039062 22.398438 C 94.453125 23.746094 93.605469 25.777344 93.335938 27.808594 C 93.132812 29.710938 93.339844 31.695312 94.183594 33.429688 C 94.84375 34.867188 95.957031 36.132812 97.398438 36.8125 C 98.832031 37.46875 100.574219 37.4375 101.972656 36.699219 C 103.730469 35.816406 104.882812 34.050781 105.449219 32.214844 C 105.863281 30.769531 106.0625 29.230469 105.800781 27.742188 C 105.554688 25.769531 104.710938 23.816406 103.214844 22.476562 C 102.140625 21.507812 100.675781 20.933594 99.226562 21.03125 Z M 99.226562 21.03125 "/>
<path style=" stroke:none;fill-rule:nonzero;fill:rgb(53.72549%,46.666667%,40.392157%);fill-opacity:1;" d="M 69.925781 19.503906 C 71.851562 19.507812 73.773438 19.484375 75.699219 19.515625 C 75.707031 24.773438 75.691406 30.03125 75.707031 35.292969 C 75.65625 35.964844 76.34375 36.421875 76.957031 36.390625 C 80.261719 36.386719 83.570312 36.386719 86.875 36.390625 C 86.882812 37.164062 86.910156 37.9375 86.855469 38.714844 C 82 38.722656 77.144531 38.714844 72.292969 38.71875 C 71.453125 38.734375 70.605469 38.277344 70.207031 37.53125 C 69.902344 37.023438 69.90625 36.410156 69.90625 35.839844 C 69.921875 30.394531 69.878906 24.949219 69.925781 19.503906 Z M 69.925781 19.503906 "/>
<path style=" stroke:none;fill-rule:nonzero;fill:rgb(53.72549%,46.666667%,40.392157%);fill-opacity:1;" d="M 112.636719 19.503906 C 119.496094 19.5 126.351562 19.503906 133.210938 19.503906 C 133.214844 20.28125 133.210938 21.054688 133.210938 21.832031 C 131.003906 21.835938 128.796875 21.828125 126.589844 21.832031 C 126.570312 27.457031 126.582031 33.078125 126.585938 38.699219 C 124.582031 38.738281 122.582031 38.710938 120.578125 38.714844 C 120.507812 36.335938 120.566406 33.957031 120.546875 31.582031 C 120.550781 28.335938 120.535156 25.09375 120.554688 21.847656 C 117.914062 21.8125 115.273438 21.84375 112.636719 21.832031 C 112.632812 21.054688 112.628906 20.28125 112.636719 19.503906 Z M 112.636719 19.503906 "/>
<path style=" stroke:none;fill-rule:nonzero;fill:rgb(53.72549%,46.666667%,40.392157%);fill-opacity:1;" d="M 135.410156 19.503906 C 142.265625 19.503906 149.125 19.503906 155.984375 19.503906 C 155.988281 20.28125 155.984375 21.054688 155.984375 21.832031 C 153.347656 21.84375 150.707031 21.8125 148.066406 21.847656 C 148.078125 27.46875 148.09375 33.09375 148.0625 38.714844 C 146.054688 38.707031 144.046875 38.742188 142.042969 38.695312 C 142.050781 33.074219 142.058594 27.453125 142.035156 21.832031 C 139.828125 21.832031 137.617188 21.832031 135.410156 21.832031 C 135.40625 21.054688 135.40625 20.28125 135.410156 19.503906 Z M 135.410156 19.503906 "/>
<path style=" stroke:none;fill-rule:nonzero;fill:rgb(53.72549%,46.666667%,40.392157%);fill-opacity:1;" d="M 160.507812 19.761719 C 161.144531 19.4375 161.878906 19.515625 162.570312 19.511719 C 167.417969 19.511719 172.265625 19.511719 177.109375 19.507812 C 177.117188 20.28125 177.113281 21.054688 177.109375 21.828125 C 173.449219 21.828125 169.792969 21.832031 166.132812 21.828125 C 165.53125 21.769531 164.960938 22.328125 165 22.929688 C 164.984375 24.40625 164.980469 25.882812 165.003906 27.359375 C 168.988281 27.382812 172.96875 27.367188 176.953125 27.363281 C 176.992188 28.128906 176.972656 28.890625 176.96875 29.65625 C 172.980469 29.664062 168.992188 29.652344 165 29.660156 C 164.984375 31.535156 164.984375 33.414062 165 35.292969 C 164.964844 35.890625 165.53125 36.449219 166.132812 36.394531 C 169.792969 36.390625 173.453125 36.390625 177.109375 36.390625 C 177.113281 37.164062 177.117188 37.9375 177.109375 38.710938 C 171.941406 38.703125 166.769531 38.714844 161.601562 38.707031 C 160.773438 38.699219 159.914062 38.285156 159.519531 37.53125 C 159.226562 37.066406 159.230469 36.5 159.226562 35.972656 C 159.234375 31.261719 159.21875 26.550781 159.234375 21.835938 C 159.207031 20.972656 159.714844 20.117188 160.507812 19.761719 Z M 160.507812 19.761719 "/>
<path style=" stroke:none;fill-rule:nonzero;fill:rgb(53.72549%,46.666667%,40.392157%);fill-opacity:1;" d="M 210.363281 21.34375 C 212.148438 21.179688 214.121094 21.207031 215.675781 22.238281 C 216.160156 22.511719 216.59375 22.871094 217.046875 23.195312 C 217.480469 23.503906 217.707031 23.996094 218.03125 24.402344 C 218.816406 25.457031 219.296875 26.722656 219.480469 28.019531 C 219.515625 29.179688 219.601562 30.367188 219.261719 31.492188 C 218.710938 33.449219 217.40625 35.199219 215.660156 36.238281 C 214.882812 36.78125 213.933594 36.976562 213.027344 37.1875 C 211.550781 37.261719 210.011719 37.285156 208.625 36.691406 C 207.710938 36.246094 206.796875 35.730469 206.109375 34.96875 C 205.527344 34.160156 204.902344 33.359375 204.539062 32.421875 C 204.0625 31.292969 203.9375 30.054688 203.992188 28.835938 C 203.96875 27.6875 204.3125 26.558594 204.8125 25.535156 C 205.175781 24.785156 205.730469 24.15625 206.214844 23.488281 C 207.3125 22.335938 208.816406 21.652344 210.363281 21.34375 M 211.453125 23.78125 C 210.355469 23.867188 209.269531 24.296875 208.484375 25.078125 C 206.585938 26.847656 206.25 29.941406 207.53125 32.164062 C 208.492188 33.929688 210.640625 35.058594 212.636719 34.636719 C 213.695312 34.476562 214.6875 33.871094 215.328125 33.019531 C 216.015625 32.3125 216.484375 31.347656 216.558594 30.359375 C 217.046875 28.492188 216.351562 26.441406 215.011719 25.089844 C 214.007812 24.292969 212.765625 23.652344 211.453125 23.78125 Z M 211.453125 23.78125 "/>
<path style=" stroke:none;fill-rule:nonzero;fill:rgb(53.72549%,46.666667%,40.392157%);fill-opacity:1;" d="M 267.640625 22.226562 C 268.324219 21.710938 269.171875 21.476562 270 21.300781 C 270.683594 21.261719 271.367188 21.277344 272.054688 21.292969 C 273.558594 21.496094 274.992188 22.109375 276.195312 23.039062 C 276.289062 23.132812 276.535156 23.265625 276.375 23.421875 C 275.875 24.054688 275.5 24.796875 274.917969 25.359375 C 273.832031 24.644531 272.652344 23.972656 271.34375 23.808594 C 270.347656 23.664062 269.214844 24.042969 268.71875 24.964844 C 268.328125 25.710938 268.742188 26.660156 269.441406 27.058594 C 270.195312 27.46875 271.019531 27.753906 271.855469 27.949219 C 272.671875 28.125 273.445312 28.441406 274.222656 28.742188 C 275.140625 29.089844 275.941406 29.757812 276.445312 30.605469 C 276.847656 31.550781 276.871094 32.601562 276.808594 33.613281 C 276.617188 34.132812 276.457031 34.675781 276.15625 35.144531 C 275.511719 36.046875 274.566406 36.738281 273.476562 36.976562 C 272.484375 37.328125 271.425781 37.195312 270.398438 37.203125 C 268.464844 36.910156 266.617188 36.046875 265.1875 34.695312 C 265.71875 34.011719 266.257812 33.332031 266.859375 32.707031 L 266.945312 32.707031 C 267.921875 33.542969 269.027344 34.335938 270.320312 34.566406 C 271.289062 34.8125 272.355469 34.761719 273.246094 34.289062 C 273.664062 34 273.96875 33.558594 274.121094 33.074219 C 274.238281 32.578125 274.027344 32.070312 273.75 31.667969 C 271.921875 30.289062 269.441406 30.472656 267.558594 29.210938 C 266.542969 28.59375 265.828125 27.433594 265.894531 26.230469 C 265.894531 25.699219 265.859375 25.160156 265.945312 24.632812 C 266.25 23.691406 266.789062 22.777344 267.640625 22.226562 Z M 267.640625 22.226562 "/>
<path style=" stroke:none;fill-rule:nonzero;fill:rgb(53.72549%,46.666667%,40.392157%);fill-opacity:1;" d="M 288.023438 22.445312 C 288.878906 21.726562 289.972656 21.171875 291.121094 21.277344 C 292.675781 21.144531 294.328125 22.007812 294.960938 23.464844 C 295.316406 24.285156 295.226562 25.195312 295.1875 26.0625 C 294.941406 26.847656 294.472656 27.59375 293.78125 28.058594 C 293.261719 28.507812 292.59375 28.714844 292.023438 29.078125 C 292.800781 29.957031 293.671875 30.742188 294.46875 31.601562 C 295.070312 30.714844 295.492188 29.722656 296.007812 28.789062 C 296.136719 28.613281 296.324219 28.78125 296.464844 28.847656 C 297.015625 29.175781 297.582031 29.480469 298.128906 29.824219 C 297.566406 31.035156 296.835938 32.15625 296.183594 33.324219 C 296.585938 33.675781 296.855469 34.148438 297.242188 34.519531 C 297.59375 34.898438 297.992188 35.230469 298.3125 35.640625 C 298.410156 35.777344 298.308594 35.949219 298.179688 36.023438 C 297.648438 36.421875 297.121094 36.824219 296.570312 37.195312 C 296.203125 37.265625 296.007812 36.878906 295.765625 36.679688 C 295.347656 36.210938 294.789062 35.851562 294.484375 35.289062 C 293.199219 36.445312 291.527344 37.359375 289.746094 37.214844 C 287.503906 37.324219 285.140625 35.585938 285.058594 33.242188 C 284.910156 32.695312 285.105469 32.152344 285.140625 31.609375 C 285.394531 30.535156 286.15625 29.632812 287.066406 29.042969 C 287.398438 28.804688 287.789062 28.65625 288.117188 28.410156 C 287.53125 27.464844 286.917969 26.425781 287 25.265625 C 286.898438 24.222656 287.398438 23.242188 288.023438 22.445312 M 290.386719 23.695312 C 289.738281 23.992188 289.519531 24.75 289.457031 25.402344 C 289.546875 26.242188 290.050781 26.980469 290.597656 27.601562 C 291.34375 27.339844 292.039062 26.886719 292.519531 26.25 C 292.882812 25.78125 292.800781 25.15625 292.75 24.609375 C 292.410156 23.730469 291.238281 23.15625 290.386719 23.695312 M 287.894531 32.039062 C 287.699219 32.609375 287.667969 33.3125 288.070312 33.804688 C 288.511719 34.457031 289.238281 34.910156 290.019531 35.015625 C 291.097656 34.984375 292.105469 34.414062 292.859375 33.664062 C 291.960938 32.691406 290.957031 31.816406 290.15625 30.761719 C 289.988281 30.605469 289.855469 30.371094 289.628906 30.316406 C 288.878906 30.660156 288.152344 31.222656 287.894531 32.039062 Z M 287.894531 32.039062 "/>
<path style=" stroke:none;fill-rule:nonzero;fill:rgb(53.72549%,46.666667%,40.392157%);fill-opacity:1;" d="M 337.222656 24.011719 C 337.941406 22.183594 339.988281 21.183594 341.882812 21.28125 C 342.976562 21.238281 344.09375 21.363281 345.121094 21.765625 C 345.964844 22.191406 346.863281 22.644531 347.507812 23.335938 C 347.144531 23.808594 346.785156 24.285156 346.46875 24.789062 C 346.285156 25.039062 346.140625 25.390625 345.785156 25.402344 C 345.324219 24.726562 344.476562 24.539062 343.804688 24.152344 C 342.855469 23.761719 341.738281 23.625 340.765625 24.007812 C 340.117188 24.253906 339.679688 24.890625 339.574219 25.558594 C 339.625 26.273438 340.105469 26.914062 340.726562 27.253906 C 341.414062 27.605469 342.1875 27.734375 342.921875 27.949219 C 343.605469 28.085938 344.242188 28.367188 344.910156 28.5625 C 345.910156 28.902344 346.808594 29.558594 347.390625 30.445312 C 348.277344 32.230469 347.996094 34.675781 346.429688 35.996094 C 345.351562 37.050781 343.738281 37.289062 342.292969 37.210938 C 341.425781 37.300781 340.597656 37.03125 339.773438 36.832031 C 338.8125 36.570312 337.9375 36.078125 337.148438 35.484375 C 336.832031 35.261719 336.605469 34.917969 336.230469 34.789062 C 336.363281 34.425781 336.652344 34.152344 336.886719 33.847656 C 337.238281 33.472656 337.523438 33.035156 337.894531 32.675781 C 339.085938 33.652344 340.445312 34.59375 342.035156 34.679688 C 342.597656 34.777344 343.175781 34.71875 343.722656 34.535156 C 344.367188 34.417969 344.859375 33.878906 345.101562 33.285156 C 345.347656 32.722656 345.125 32.054688 344.75 31.601562 C 343.011719 30.386719 340.773438 30.421875 338.921875 29.449219 C 338.515625 29.183594 338.097656 28.921875 337.75 28.578125 C 337.296875 27.933594 336.929688 27.175781 336.960938 26.367188 C 336.960938 25.578125 336.859375 24.746094 337.222656 24.011719 Z M 337.222656 24.011719 "/>
<path style=" stroke:none;fill-rule:nonzero;fill:rgb(53.72549%,46.666667%,40.392157%);fill-opacity:1;" d="M 357.019531 21.347656 C 358.625 21.1875 360.335938 21.191406 361.8125 21.9375 C 362.644531 22.273438 363.367188 22.824219 364.035156 23.410156 C 364.734375 24.332031 365.492188 25.261719 365.84375 26.386719 C 366.359375 27.953125 366.386719 29.660156 366.0625 31.269531 C 365.910156 32.050781 365.535156 32.757812 365.164062 33.453125 C 364.765625 34.210938 364.132812 34.796875 363.574219 35.433594 C 362.414062 36.414062 360.949219 37.015625 359.449219 37.210938 C 358.488281 37.175781 357.5 37.328125 356.566406 37.046875 C 355.753906 36.855469 354.945312 36.585938 354.28125 36.066406 C 352.738281 35.132812 351.609375 33.605469 351.042969 31.90625 C 350.5625 30.667969 350.734375 29.324219 350.710938 28.027344 C 350.957031 27.195312 351.125 26.335938 351.515625 25.550781 C 352.210938 24.015625 353.546875 22.886719 354.957031 22.015625 C 355.601562 21.691406 356.3125 21.511719 357.019531 21.347656 M 357.710938 23.835938 C 355.664062 24.113281 354 25.886719 353.703125 27.910156 C 353.179688 29.46875 353.679688 31.179688 354.515625 32.53125 C 355.089844 33.53125 356.117188 34.210938 357.210938 34.527344 C 358.902344 35.046875 360.945312 34.496094 362.03125 33.070312 C 362.695312 32.402344 363.082031 31.515625 363.277344 30.605469 C 363.792969 28.773438 363.167969 26.765625 361.980469 25.332031 C 360.914062 24.1875 359.261719 23.574219 357.710938 23.835938 Z M 357.710938 23.835938 "/>
<path style=" stroke:none;fill-rule:nonzero;fill:rgb(53.72549%,46.666667%,40.392157%);fill-opacity:1;" d="M 400.410156 23.003906 C 401.355469 21.722656 403.042969 21.21875 404.578125 21.28125 C 405.257812 21.265625 405.941406 21.261719 406.601562 21.472656 C 407.90625 21.667969 409 22.453125 410.085938 23.140625 C 410.011719 23.574219 409.691406 23.894531 409.445312 24.238281 C 409.140625 24.621094 408.9375 25.078125 408.574219 25.410156 C 407.347656 24.445312 405.832031 23.703125 404.242188 23.796875 C 403.308594 23.816406 402.382812 24.464844 402.199219 25.40625 C 402.078125 26.378906 402.917969 27.148438 403.757812 27.460938 C 405.605469 28.078125 407.664062 28.300781 409.242188 29.53125 C 410.480469 30.519531 410.621094 32.269531 410.402344 33.730469 C 410.21875 34.355469 409.914062 34.941406 409.582031 35.496094 C 409.09375 36.027344 408.539062 36.527344 407.851562 36.773438 C 407.277344 36.972656 406.6875 37.128906 406.089844 37.207031 C 405.355469 37.214844 404.628906 37.222656 403.898438 37.203125 C 402.820312 36.933594 401.660156 36.789062 400.730469 36.117188 C 400.113281 35.695312 399.398438 35.34375 398.960938 34.71875 C 399.054688 34.1875 399.550781 33.863281 399.835938 33.433594 C 400.074219 33.1875 400.253906 32.8125 400.582031 32.703125 C 401.546875 33.53125 402.628906 34.347656 403.914062 34.585938 C 404.585938 34.6875 405.273438 34.804688 405.949219 34.644531 C 406.710938 34.554688 407.390625 34.003906 407.664062 33.289062 C 407.894531 32.75 407.710938 32.117188 407.375 31.667969 C 406.519531 30.886719 405.332031 30.730469 404.273438 30.378906 C 402.964844 30.054688 401.515625 29.773438 400.570312 28.722656 C 400.019531 28.25 399.734375 27.566406 399.546875 26.882812 C 399.503906 26.171875 399.507812 25.457031 399.546875 24.746094 C 399.707031 24.113281 400.023438 23.523438 400.410156 23.003906 Z M 400.410156 23.003906 "/>
<path style=" stroke:none;fill-rule:nonzero;fill:rgb(53.72549%,46.666667%,40.392157%);fill-opacity:1;" d="M 187.550781 21.566406 C 188.460938 21.550781 189.371094 21.558594 190.28125 21.558594 C 190.285156 23.710938 190.28125 25.859375 190.285156 28.011719 C 192.160156 28.015625 194.035156 28.007812 195.910156 28.011719 C 196.359375 28 196.847656 28.097656 197.238281 27.816406 C 197.277344 25.730469 197.238281 23.644531 197.261719 21.5625 C 198.132812 21.554688 199.007812 21.554688 199.882812 21.558594 C 199.882812 26.683594 199.882812 31.808594 199.882812 36.933594 C 199.007812 36.9375 198.132812 36.9375 197.261719 36.933594 C 197.238281 34.847656 197.28125 32.765625 197.238281 30.679688 C 197.039062 30.578125 196.832031 30.453125 196.601562 30.480469 C 194.488281 30.484375 192.375 30.480469 190.265625 30.484375 C 190.308594 32.632812 190.273438 34.785156 190.28125 36.933594 C 189.371094 36.933594 188.460938 36.945312 187.546875 36.929688 C 187.539062 31.808594 187.539062 26.6875 187.550781 21.566406 Z M 187.550781 21.566406 "/>
<path style=" stroke:none;fill-rule:nonzero;fill:rgb(53.72549%,46.666667%,40.392157%);fill-opacity:1;" d="M 221.566406 21.5625 C 225.589844 21.554688 229.609375 21.554688 233.632812 21.5625 C 233.632812 22.382812 233.632812 23.203125 233.632812 24.023438 C 232.132812 24.035156 230.628906 24.027344 229.132812 24.027344 C 228.902344 24.5 228.976562 25.03125 228.96875 25.539062 C 228.96875 29.335938 228.972656 33.136719 228.96875 36.933594 C 228.011719 36.9375 227.050781 36.9375 226.09375 36.9375 C 226.089844 32.816406 226.089844 28.695312 226.09375 24.574219 C 226.050781 24.359375 226.230469 24.238281 226.371094 24.117188 C 224.777344 23.925781 223.164062 24.082031 221.566406 24.023438 C 221.5625 23.203125 221.570312 22.382812 221.566406 21.5625 Z M 221.566406 21.5625 "/>
<path style=" stroke:none;fill-rule:nonzero;fill:rgb(53.72549%,46.666667%,40.392157%);fill-opacity:1;" d="M 236.917969 21.5625 C 240.589844 21.550781 244.257812 21.554688 247.929688 21.5625 C 247.941406 22.382812 247.941406 23.203125 247.929688 24.023438 C 245.175781 24.035156 242.417969 24.023438 239.660156 24.03125 C 239.683594 25.359375 239.667969 26.683594 239.675781 28.011719 C 242.105469 28.015625 244.539062 28.007812 246.96875 28.015625 C 246.984375 28.835938 246.984375 29.65625 246.96875 30.480469 C 244.535156 30.488281 242.097656 30.476562 239.660156 30.484375 C 239.683594 31.8125 239.667969 33.136719 239.671875 34.464844 C 242.464844 34.472656 245.253906 34.453125 248.046875 34.472656 C 248.0625 35.292969 248.0625 36.109375 248.046875 36.929688 C 244.335938 36.941406 240.628906 36.9375 236.917969 36.929688 C 236.910156 31.808594 236.910156 26.6875 236.917969 21.5625 Z M 236.917969 21.5625 "/>
<path style=" stroke:none;fill-rule:nonzero;fill:rgb(53.72549%,46.666667%,40.392157%);fill-opacity:1;" d="M 252.140625 21.5625 C 253.0625 21.554688 253.980469 21.558594 254.898438 21.558594 C 254.902344 25.859375 254.898438 30.160156 254.902344 34.464844 C 257.460938 34.46875 260.023438 34.460938 262.582031 34.464844 C 262.582031 35.289062 262.582031 36.113281 262.582031 36.933594 C 259.101562 36.933594 255.621094 36.941406 252.140625 36.929688 C 252.136719 31.808594 252.136719 26.683594 252.140625 21.5625 Z M 252.140625 21.5625 "/>
<path style=" stroke:none;fill-rule:nonzero;fill:rgb(53.72549%,46.666667%,40.392157%);fill-opacity:1;" d="M 306.226562 21.5625 C 307.957031 21.550781 309.691406 21.5625 311.421875 21.558594 C 312.664062 21.578125 313.941406 21.445312 315.144531 21.835938 C 316.011719 22.082031 316.84375 22.546875 317.421875 23.253906 C 318.050781 24.210938 318.46875 25.34375 318.425781 26.503906 C 318.445312 27.644531 318 28.746094 317.355469 29.671875 C 316.890625 30.234375 316.246094 30.632812 315.582031 30.910156 C 315.382812 31.007812 315.050781 30.996094 315.078125 31.296875 C 315.910156 32.535156 316.816406 33.722656 317.597656 34.988281 C 317.957031 35.675781 318.476562 36.257812 318.863281 36.929688 C 317.8125 36.941406 316.757812 36.941406 315.703125 36.929688 C 314.484375 35.152344 313.230469 33.40625 312.078125 31.589844 C 311.027344 31.574219 309.972656 31.585938 308.921875 31.582031 C 308.988281 33.363281 308.9375 35.152344 308.953125 36.933594 C 308.042969 36.933594 307.132812 36.941406 306.226562 36.929688 C 306.230469 31.808594 306.230469 26.6875 306.226562 21.5625 M 308.925781 24.03125 C 308.988281 25.722656 308.933594 27.414062 308.957031 29.109375 C 310.144531 29.105469 311.339844 29.117188 312.53125 29.105469 C 313.488281 29.074219 314.539062 28.824219 315.171875 28.046875 C 315.820312 27.222656 315.859375 25.996094 315.277344 25.121094 C 314.734375 24.320312 313.699219 24.097656 312.796875 24.039062 C 311.503906 24.015625 310.214844 24.035156 308.925781 24.03125 Z M 308.925781 24.03125 "/>
<path style=" stroke:none;fill-rule:nonzero;fill:rgb(53.72549%,46.666667%,40.392157%);fill-opacity:1;" d="M 322.523438 21.5625 C 326.195312 21.554688 329.863281 21.554688 333.535156 21.5625 C 333.546875 22.382812 333.546875 23.203125 333.535156 24.023438 C 330.78125 24.035156 328.03125 24.023438 325.28125 24.03125 C 325.28125 25.355469 325.277344 26.683594 325.28125 28.011719 C 327.710938 28.015625 330.140625 28.007812 332.570312 28.015625 C 332.582031 28.835938 332.582031 29.65625 332.570312 30.480469 C 330.140625 30.488281 327.710938 30.480469 325.28125 30.484375 C 325.28125 31.8125 325.277344 33.136719 325.28125 34.464844 C 328.066406 34.46875 330.855469 34.457031 333.640625 34.472656 C 333.660156 35.289062 333.660156 36.109375 333.640625 36.929688 C 329.933594 36.941406 326.226562 36.9375 322.523438 36.929688 C 322.515625 31.808594 322.515625 26.683594 322.523438 21.5625 Z M 322.523438 21.5625 "/>
<path style=" stroke:none;fill-rule:nonzero;fill:rgb(53.72549%,46.666667%,40.392157%);fill-opacity:1;" d="M 369.878906 21.5625 C 372.070312 21.550781 374.261719 21.5625 376.449219 21.554688 C 377.851562 21.488281 379.277344 21.863281 380.445312 22.644531 C 381.316406 23.285156 381.785156 24.328125 381.964844 25.375 C 382.019531 25.75 382.199219 26.109375 382.214844 26.492188 C 381.925781 27.492188 381.835938 28.597656 381.179688 29.453125 C 380.574219 30.34375 379.5625 30.8125 378.570312 31.128906 C 379.40625 32.339844 380.28125 33.523438 381.09375 34.75 C 381.558594 35.476562 382.140625 36.132812 382.503906 36.925781 C 381.457031 36.941406 380.40625 36.945312 379.363281 36.925781 C 378.25 35.375 377.183594 33.792969 376.097656 32.222656 C 375.917969 31.949219 375.746094 31.542969 375.355469 31.582031 C 374.621094 31.574219 373.886719 31.582031 373.15625 31.578125 C 372.945312 31.566406 372.753906 31.636719 372.574219 31.714844 C 372.65625 33.453125 372.589844 35.195312 372.609375 36.933594 C 371.699219 36.9375 370.789062 36.941406 369.878906 36.933594 C 369.878906 31.808594 369.878906 26.683594 369.878906 21.5625 M 372.574219 24.160156 C 372.65625 25.808594 372.585938 27.460938 372.613281 29.109375 C 373.800781 29.105469 374.992188 29.117188 376.1875 29.105469 C 377.140625 29.066406 378.203125 28.832031 378.824219 28.042969 C 379.773438 26.890625 379.367188 24.867188 377.925781 24.332031 C 376.660156 23.902344 375.296875 24.0625 373.984375 24.027344 C 373.511719 24.046875 373.011719 23.945312 372.574219 24.160156 Z M 372.574219 24.160156 "/>
<path style=" stroke:none;fill-rule:nonzero;fill:rgb(53.72549%,46.666667%,40.392157%);fill-opacity:1;" d="M 384.695312 21.5625 C 388.71875 21.554688 392.746094 21.554688 396.769531 21.5625 C 396.777344 22.382812 396.777344 23.203125 396.769531 24.023438 C 395.210938 24.039062 393.652344 24.023438 392.09375 24.03125 C 392.085938 28.332031 392.09375 32.632812 392.089844 36.933594 C 391.175781 36.9375 390.261719 36.9375 389.351562 36.933594 C 389.359375 32.632812 389.324219 28.332031 389.367188 24.03125 C 387.808594 24.023438 386.25 24.039062 384.695312 24.023438 C 384.699219 23.203125 384.699219 22.382812 384.695312 21.5625 Z M 384.695312 21.5625 "/>
<path style=" stroke:none;fill-rule:nonzero;fill:rgb(100%,100%,100%);fill-opacity:1;" d="M 26.933594 11.582031 C 28.550781 11.332031 30.320312 11.421875 31.75 12.296875 C 33.25 13.195312 34.261719 14.730469 34.832031 16.355469 C 35.75 18.945312 35.804688 21.734375 35.667969 24.449219 C 35.363281 29.15625 34.171875 33.875 31.753906 37.953125 C 31.433594 38.515625 30.726562 38.851562 30.09375 38.664062 C 29.390625 38.480469 28.859375 37.726562 29.007812 36.996094 C 29.15625 36.390625 29.5625 35.894531 29.828125 35.339844 C 32.058594 31.175781 32.855469 26.378906 32.769531 21.691406 C 32.691406 20.125 32.527344 18.53125 31.9375 17.0625 C 31.496094 15.921875 30.667969 14.792969 29.414062 14.507812 C 28.328125 14.296875 27.082031 14.363281 26.199219 15.105469 C 25.328125 15.832031 24.859375 16.917969 24.554688 17.984375 C 24.0625 19.722656 24.027344 21.546875 24.054688 23.339844 C 24.136719 25.929688 24.4375 28.507812 24.953125 31.042969 C 25.480469 33.597656 26.210938 36.136719 27.441406 38.445312 C 28.234375 39.90625 29.273438 41.304688 30.726562 42.164062 C 31.996094 42.976562 33.699219 42.894531 34.980469 42.148438 C 36.839844 41.109375 38.3125 39.496094 39.523438 37.765625 C 39.890625 37.242188 40.210938 36.550781 40.898438 36.402344 C 41.617188 36.226562 42.4375 36.652344 42.648438 37.371094 C 42.777344 37.804688 42.726562 38.292969 42.472656 38.671875 C 41.347656 40.457031 39.96875 42.097656 38.335938 43.441406 C 36.925781 44.566406 35.28125 45.519531 33.449219 45.683594 C 31.285156 45.9375 29.152344 44.957031 27.597656 43.5 C 25.761719 41.820312 24.558594 39.578125 23.660156 37.289062 C 22.144531 33.273438 21.449219 28.984375 21.152344 24.714844 C 21.003906 21.984375 21.019531 19.179688 21.902344 16.5625 C 22.398438 15.078125 23.226562 13.660156 24.480469 12.691406 C 25.195312 12.132812 26.046875 11.761719 26.933594 11.582031 Z M 26.933594 11.582031 "/>
<path style=" stroke:none;fill-rule:nonzero;fill:rgb(100%,100%,100%);fill-opacity:1;" d="M 21.582031 42.46875 C 22.566406 42.105469 23.734375 42.878906 23.742188 43.9375 C 23.867188 44.980469 22.765625 45.90625 21.761719 45.644531 C 20.871094 45.472656 20.230469 44.476562 20.511719 43.597656 C 20.652344 43.074219 21.0625 42.632812 21.582031 42.46875 Z M 21.582031 42.46875 "/>
</g>
</svg>
